<?xml version="1.0" encoding="UTF-8" standalone="no"?><svg xmlns="http://www.w3.org/2000/svg" xmlns:xlink="http://www.w3.org/1999/xlink" clip-rule="evenodd" stroke-miterlimit="4.00" viewBox="0 0 1024 768"><desc>SVG generated by Keynote</desc><defs><linearGradient id="gradSh1.4" x1="0.0" y1="0.0" x2="100.0" y2="0.0" gradientUnits="userSpaceOnUse" gradientTransform="matrix(-0.22, 0.11, 0.08, 0.15, 390.5, 457.5)"><stop offset="0.00000" stop-color="#189B1A"></stop><stop offset="0.00660" stop-color="#189A1A"></stop><stop offset="0.69355" stop-color="#207010"></stop><stop offset="0.70015" stop-color="#206F10"></stop><stop offset="0.70308" stop-color="#206F0F"></stop><stop offset="0.71628" stop-color="#206E0F"></stop><stop offset="1.00000" stop-color="#235D0B"></stop></linearGradient></defs><g transform="matrix(1.00, 0.00, -0.00, -1.00, 0.0, 768.0)"><path d="M 0.0 768.0 L 1024.0 768.0 L 1024.0 0.0 L 0.0 0.0 Z M 0.0 768.0 " fill="#000000"></path><path d="M -14.2 770.5 L 1038.2 770.5 L 1038.2 -2.5 L -14.2 -2.5 Z M -14.2 770.5 " fill="#FEFFFE"></path><image xlink:href="../../2047AB5C-7DD5-4D31-A299-C2B97637865B/assets/8A80DBD34981D04A61A2DBB4DC4D72CA.png" width="169.00" height="169.00" transform="matrix(0.99, 0.00, -0.00, -0.99, 435.0, 512.0)"></image><image xlink:href="../../2047AB5C-7DD5-4D31-A299-C2B97637865B/assets/2B68E915BCD6AA0D158B1C73B015F788.png" width="138.00" height="138.00" transform="matrix(0.99, 0.00, -0.00, -0.99, 853.0, 627.0)"></image><image xlink:href="../../2047AB5C-7DD5-4D31-A299-C2B97637865B/assets/21468A94A71AC362FECFCFC43FA6358C.png" width="178.00" height="178.00" transform="matrix(1.00, 0.00, -0.00, -0.99, 7.0, 647.0)"></image><image xlink:href="../../2047AB5C-7DD5-4D31-A299-C2B97637865B/assets/6D2A8F7977359FD6321C12FD89010309.png" width="517.00" height="265.00" transform="matrix(1.00, 0.00, -0.00, -1.00, 290.0, 254.0)"></image><image xlink:href="../../2047AB5C-7DD5-4D31-A299-C2B97637865B/assets/DB4BF154E6791F676E360648120E0C4D.jpeg" width="131.00" height="153.00" transform="matrix(1.01, 0.00, -0.00, -1.00, 446.0, 754.0)"></image><image xlink:href="../../7D842B4F-18D6-4926-B340-A29B732E59BE/assets/A32925AA8681CDA0696AC7E9B24D3F28.png" width="99.00" height="99.00" transform="matrix(0.99, 0.00, -0.00, -1.00, 470.0, 339.0)"></image><g><clipPath id="clip-548"><path d="M 200.9 531.5 L 378.0 467.6 L 376.6 463.9 L 199.5 527.7 Z M 200.9 531.5 "></path></clipPath><g clip-path="url(#clip-548)"><path d="M 0.0 0.0 L 186.2 0.0 " fill="none" stroke="#179A19" stroke-width="2.00" transform="matrix(0.94, -0.34, -0.34, -0.94, 201.1, 529.3)"></path></g></g><g><clipPath id="clip-549"><path d="M 394.3 464.8 L 386.8 450.2 L 364.9 461.6 L 372.5 476.1 Z M 394.3 464.8 "></path></clipPath><g clip-path="url(#clip-549)"><g><clipPath id="clip-550"><path d="M 389.7 458.0 L 366.3 462.0 L 372.9 474.8 Z M 389.7 458.0 "></path></clipPath><g clip-path="url(#clip-550)"><path d="M 389.7 458.0 L 366.3 462.0 L 372.9 474.8 Z M 389.7 458.0 " fill="url(#gradSh1.4)"></path></g></g></g></g><image xlink:href="../../004E0C61-A14F-42B5-880C-269D53CE0A1D/assets/47BAF11FC19067DD4F7295C6E16B6AFB.png" width="131.00" height="99.00" transform="matrix(0.99, 0.00, -0.00, -1.00, 323.0, 191.0)"></image></g></svg>