<?xml version="1.0" encoding="UTF-8" standalone="no"?><svg xmlns="http://www.w3.org/2000/svg" xmlns:xlink="http://www.w3.org/1999/xlink" clip-rule="evenodd" stroke-miterlimit="4.00" viewBox="0 0 1024 768"><desc>SVG generated by Keynote</desc><defs></defs><g transform="matrix(1.00, 0.00, -0.00, -1.00, 0.0, 768.0)"><path d="M 0.0 768.0 L 1024.0 768.0 L 1024.0 0.0 L 0.0 0.0 Z M 0.0 768.0 " fill="#000000"></path><image xlink:href="112F7E6981152A9A1D4120DF8B00EF68.jpeg" width="204.00" height="204.00" transform="matrix(1.00, 0.00, -0.00, -1.00, 475.0, 719.0)"></image><text xml:space="preserve" font-family="Helvetica-Light" font-size="36.0" fill="#FEFFFF" transform="matrix(1.00, 0.00, -0.00, -1.00, 354.0, 292.0)">S</text><text xml:space="preserve" font-family="Helvetica-Light" font-size="36.0" fill="#FEFFFF" transform="matrix(1.00, 0.00, -0.00, -1.00, 376.0, 292.0)">a</text><text xml:space="preserve" font-family="Helvetica-Light" font-size="36.0" fill="#FEFFFF" transform="matrix(1.00, 0.00, -0.00, -1.00, 396.0, 292.0)">n</text><text xml:space="preserve" font-family="Helvetica-Light" font-size="36.0" fill="#FEFFFF" transform="matrix(1.00, 0.00, -0.00, -1.00, 416.0, 292.0)">d</text><text xml:space="preserve" font-family="Helvetica-Light" font-size="36.0" fill="#FEFFFF" transform="matrix(1.00, 0.00, -0.00, -1.00, 438.0, 292.0)">e</text><text xml:space="preserve" font-family="Helvetica-Light" font-size="36.0" fill="#FEFFFF" transform="matrix(1.00, 0.00, -0.00, -1.00, 458.0, 292.0)">e</text><text xml:space="preserve" font-family="Helvetica-Light" font-size="36.0" fill="#FEFFFF" transform="matrix(1.00, 0.00, -0.00, -1.00, 478.1, 292.0)">p</text><text xml:space="preserve" font-family="Helvetica-Light" font-size="36.0" fill="#FEFFFF" transform="matrix(1.00, 0.00, -0.00, -1.00, 500.1, 292.0)"> </text><text xml:space="preserve" font-family="Helvetica-Light" font-size="36.0" fill="#FEFFFF" transform="matrix(1.00, 0.00, -0.00, -1.00, 510.1, 292.0)">J</text><text xml:space="preserve" font-family="Helvetica-Light" font-size="36.0" fill="#FEFFFF" transform="matrix(1.00, 0.00, -0.00, -1.00, 528.1, 292.0)">u</text><text xml:space="preserve" font-family="Helvetica-Light" font-size="36.0" fill="#FEFFFF" transform="matrix(1.00, 0.00, -0.00, -1.00, 548.1, 292.0)">n</text><text xml:space="preserve" font-family="Helvetica-Light" font-size="36.0" fill="#FEFFFF" transform="matrix(1.00, 0.00, -0.00, -1.00, 568.1, 292.0)">n</text><text xml:space="preserve" font-family="Helvetica-Light" font-size="36.0" fill="#FEFFFF" transform="matrix(1.00, 0.00, -0.00, -1.00, 588.1, 292.0)">a</text><text xml:space="preserve" font-family="Helvetica-Light" font-size="36.0" fill="#FEFFFF" transform="matrix(1.00, 0.00, -0.00, -1.00, 608.1, 292.0)">r</text><text xml:space="preserve" font-family="Helvetica-Light" font-size="36.0" fill="#FEFFFF" transform="matrix(1.00, 0.00, -0.00, -1.00, 620.1, 292.0)">k</text><text xml:space="preserve" font-family="Helvetica-Light" font-size="36.0" fill="#FEFFFF" transform="matrix(1.00, 0.00, -0.00, -1.00, 638.1, 292.0)">a</text><text xml:space="preserve" font-family="Helvetica-Light" font-size="36.0" fill="#FEFFFF" transform="matrix(1.00, 0.00, -0.00, -1.00, 658.1, 292.0)">r</text><image xlink:href="7AD00EF3FD6C1AC70F7799E310E99ABC.png" width="261.00" height="294.00" transform="matrix(1.00, 0.00, -0.00, -1.00, 279.0, 683.0)"></image><text xml:space="preserve" font-family="Helvetica-Light" font-size="43.0" fill="#FEFFFF" transform="matrix(1.00, 0.00, -0.00, -1.00, 71.0, 27.0)">D</text><text xml:space="preserve" font-family="Helvetica-Light" font-size="43.0" fill="#FEFFFF" transform="matrix(1.00, 0.00, -0.00, -1.00, 102.0, 27.0)">o</text><text xml:space="preserve" font-family="Helvetica-Light" font-size="43.0" fill="#FEFFFF" transform="matrix(1.00, 0.00, -0.00, -1.00, 126.0, 27.0)">w</text><text xml:space="preserve" font-family="Helvetica-Light" font-size="43.0" fill="#FEFFFF" transform="matrix(1.00, 0.00, -0.00, -1.00, 157.0, 27.0)">n</text><text xml:space="preserve" font-family="Helvetica-Light" font-size="43.0" fill="#FEFFFF" transform="matrix(1.00, 0.00, -0.00, -1.00, 180.9, 27.0)">l</text><text xml:space="preserve" font-family="Helvetica-Light" font-size="43.0" fill="#FEFFFF" transform="matrix(1.00, 0.00, -0.00, -1.00, 190.5, 27.0)">o</text><text xml:space="preserve" font-family="Helvetica-Light" font-size="43.0" fill="#FEFFFF" transform="matrix(1.00, 0.00, -0.00, -1.00, 214.4, 27.0)">a</text><text xml:space="preserve" font-family="Helvetica-Light" font-size="43.0" fill="#FEFFFF" transform="matrix(1.00, 0.00, -0.00, -1.00, 238.3, 27.0)">d</text><text xml:space="preserve" font-family="Helvetica-Light" font-size="43.0" fill="#FEFFFF" transform="matrix(1.00, 0.00, -0.00, -1.00, 264.5, 27.0)"> </text><text xml:space="preserve" font-family="Helvetica-Light" font-size="43.0" fill="#FEFFFF" transform="matrix(1.00, 0.00, -0.00, -1.00, 276.5, 27.0)">a</text><text xml:space="preserve" font-family="Helvetica-Light" font-size="43.0" fill="#FEFFFF" transform="matrix(1.00, 0.00, -0.00, -1.00, 300.4, 27.0)">n</text><text xml:space="preserve" font-family="Helvetica-Light" font-size="43.0" fill="#FEFFFF" transform="matrix(1.00, 0.00, -0.00, -1.00, 324.3, 27.0)">d</text><text xml:space="preserve" font-family="Helvetica-Light" font-size="43.0" fill="#FEFFFF" transform="matrix(1.00, 0.00, -0.00, -1.00, 350.6, 27.0)"> </text><text xml:space="preserve" font-family="Helvetica-Light" font-size="43.0" fill="#FEFFFF" transform="matrix(1.00, 0.00, -0.00, -1.00, 362.5, 27.0)">I</text><text xml:space="preserve" font-family="Helvetica-Light" font-size="43.0" fill="#FEFFFF" transform="matrix(1.00, 0.00, -0.00, -1.00, 374.5, 27.0)">n</text><text xml:space="preserve" font-family="Helvetica-Light" font-size="43.0" fill="#FEFFFF" transform="matrix(1.00, 0.00, -0.00, -1.00, 398.4, 27.0)">s</text><text xml:space="preserve" font-family="Helvetica-Light" font-size="43.0" fill="#FEFFFF" transform="matrix(1.00, 0.00, -0.00, -1.00, 419.9, 27.0)">t</text><text xml:space="preserve" font-family="Helvetica-Light" font-size="43.0" fill="#FEFFFF" transform="matrix(1.00, 0.00, -0.00, -1.00, 431.9, 27.0)">a</text><text xml:space="preserve" font-family="Helvetica-Light" font-size="43.0" fill="#FEFFFF" transform="matrix(1.00, 0.00, -0.00, -1.00, 455.8, 27.0)">l</text><text xml:space="preserve" font-family="Helvetica-Light" font-size="43.0" fill="#FEFFFF" transform="matrix(1.00, 0.00, -0.00, -1.00, 465.3, 27.0)">l</text><text xml:space="preserve" font-family="Helvetica-Light" font-size="43.0" fill="#FEFFFF" transform="matrix(1.00, 0.00, -0.00, -1.00, 474.9, 27.0)">:</text><text xml:space="preserve" font-family="Helvetica-Light" font-size="43.0" fill="#FEFFFF" transform="matrix(1.00, 0.00, -0.00, -1.00, 486.8, 27.0)"> </text><text xml:space="preserve" font-family="Helvetica-Light" font-size="43.0" fill="#FEFFFF" transform="matrix(1.00, 0.00, -0.00, -1.00, 498.8, 27.0)">w</text><text xml:space="preserve" font-family="Helvetica-Light" font-size="43.0" fill="#FEFFFF" transform="matrix(1.00, 0.00, -0.00, -1.00, 529.8, 27.0)">w</text><text xml:space="preserve" font-family="Helvetica-Light" font-size="43.0" fill="#FEFFFF" transform="matrix(1.00, 0.00, -0.00, -1.00, 560.9, 27.0)">w</text><text xml:space="preserve" font-family="Helvetica-Light" font-size="43.0" fill="#FEFFFF" transform="matrix(1.00, 0.00, -0.00, -1.00, 589.5, 27.0)">.</text><text xml:space="preserve" font-family="Helvetica-Light" font-size="43.0" fill="#FEFFFF" transform="matrix(1.00, 0.00, -0.00, -1.00, 601.5, 27.0)">s</text><text xml:space="preserve" font-family="Helvetica-Light" font-size="43.0" fill="#FEFFFF" transform="matrix(1.00, 0.00, -0.00, -1.00, 623.0, 27.0)">u</text><text xml:space="preserve" font-family="Helvetica-Light" font-size="43.0" fill="#FEFFFF" transform="matrix(1.00, 0.00, -0.00, -1.00, 646.9, 27.0)">b</text><text xml:space="preserve" font-family="Helvetica-Light" font-size="43.0" fill="#FEFFFF" transform="matrix(1.00, 0.00, -0.00, -1.00, 673.2, 27.0)">l</text><text xml:space="preserve" font-family="Helvetica-Light" font-size="43.0" fill="#FEFFFF" transform="matrix(1.00, 0.00, -0.00, -1.00, 682.7, 27.0)">i</text><text xml:space="preserve" font-family="Helvetica-Light" font-size="43.0" fill="#FEFFFF" transform="matrix(1.00, 0.00, -0.00, -1.00, 692.3, 27.0)">m</text><text xml:space="preserve" font-family="Helvetica-Light" font-size="43.0" fill="#FEFFFF" transform="matrix(1.00, 0.00, -0.00, -1.00, 728.1, 27.0)">e</text><text xml:space="preserve" font-family="Helvetica-Light" font-size="43.0" fill="#FEFFFF" transform="matrix(1.00, 0.00, -0.00, -1.00, 752.0, 27.0)">t</text><text xml:space="preserve" font-family="Helvetica-Light" font-size="43.0" fill="#FEFFFF" transform="matrix(1.00, 0.00, -0.00, -1.00, 763.9, 27.0)">e</text><text xml:space="preserve" font-family="Helvetica-Light" font-size="43.0" fill="#FEFFFF" transform="matrix(1.00, 0.00, -0.00, -1.00, 787.9, 27.0)">x</text><text xml:space="preserve" font-family="Helvetica-Light" font-size="43.0" fill="#FEFFFF" transform="matrix(1.00, 0.00, -0.00, -1.00, 809.4, 27.0)">t</text><text xml:space="preserve" font-family="Helvetica-Light" font-size="43.0" fill="#FEFFFF" transform="matrix(1.00, 0.00, -0.00, -1.00, 821.3, 27.0)">.</text><text xml:space="preserve" font-family="Helvetica-Light" font-size="43.0" fill="#FEFFFF" transform="matrix(1.00, 0.00, -0.00, -1.00, 833.3, 27.0)">c</text><text xml:space="preserve" font-family="Helvetica-Light" font-size="43.0" fill="#FEFFFF" transform="matrix(1.00, 0.00, -0.00, -1.00, 857.2, 27.0)">o</text><text xml:space="preserve" font-family="Helvetica-Light" font-size="43.0" fill="#FEFFFF" transform="matrix(1.00, 0.00, -0.00, -1.00, 881.1, 27.0)">m</text><text xml:space="preserve" font-family="Helvetica-Light" font-size="43.0" fill="#FEFFFF" transform="matrix(1.00, 0.00, -0.00, -1.00, 916.9, 27.0)">/</text><text xml:space="preserve" font-family="Helvetica-Light" font-size="43.0" fill="#FEFFFF" transform="matrix(1.00, 0.00, -0.00, -1.00, 928.8, 27.0)">3</text><text xml:space="preserve" font-family="Helvetica-Light" font-size="43.0" fill="#FEFFFF" transform="matrix(1.00, 0.00, -0.00, -1.00, 952.8, 27.0)"> </text><text xml:space="preserve" font-family="Helvetica" font-size="29.0" fill="#FEFFFF" transform="matrix(1.00, 0.00, -0.00, -1.00, 380.0, 234.0)">S</text><text xml:space="preserve" font-family="Helvetica" font-size="29.0" fill="#FEFFFF" transform="matrix(1.00, 0.00, -0.00, -1.00, 399.3, 234.0)">e</text><text xml:space="preserve" font-family="Helvetica" font-size="29.0" fill="#FEFFFF" transform="matrix(1.00, 0.00, -0.00, -1.00, 415.5, 234.0)">p</text><text xml:space="preserve" font-family="Helvetica" font-size="29.0" fill="#FEFFFF" transform="matrix(1.00, 0.00, -0.00, -1.00, 431.6, 234.0)">t</text><text xml:space="preserve" font-family="Helvetica" font-size="29.0" fill="#FEFFFF" transform="matrix(1.00, 0.00, -0.00, -1.00, 439.7, 234.0)">e</text><text xml:space="preserve" font-family="Helvetica" font-size="29.0" fill="#FEFFFF" transform="matrix(1.00, 0.00, -0.00, -1.00, 455.8, 234.0)">m</text><text xml:space="preserve" font-family="Helvetica" font-size="29.0" fill="#FEFFFF" transform="matrix(1.00, 0.00, -0.00, -1.00, 480.0, 234.0)">b</text><text xml:space="preserve" font-family="Helvetica" font-size="29.0" fill="#FEFFFF" transform="matrix(1.00, 0.00, -0.00, -1.00, 496.1, 234.0)">e</text><text xml:space="preserve" font-family="Helvetica" font-size="29.0" fill="#FEFFFF" transform="matrix(1.00, 0.00, -0.00, -1.00, 512.2, 234.0)">r</text><text xml:space="preserve" font-family="Helvetica" font-size="29.0" fill="#FEFFFF" transform="matrix(1.00, 0.00, -0.00, -1.00, 521.9, 234.0)"> </text><text xml:space="preserve" font-family="Helvetica" font-size="29.0" fill="#FEFFFF" transform="matrix(1.00, 0.00, -0.00, -1.00, 529.9, 234.0)">1</text><text xml:space="preserve" font-family="Helvetica" font-size="29.0" fill="#FEFFFF" transform="matrix(1.00, 0.00, -0.00, -1.00, 546.1, 234.0)">4</text><text xml:space="preserve" font-family="Helvetica" font-size="29.0" fill="#FEFFFF" transform="matrix(1.00, 0.00, -0.00, -1.00, 562.2, 234.0)">,</text><text xml:space="preserve" font-family="Helvetica" font-size="29.0" fill="#FEFFFF" transform="matrix(1.00, 0.00, -0.00, -1.00, 570.3, 234.0)"> </text><text xml:space="preserve" font-family="Helvetica" font-size="29.0" fill="#FEFFFF" transform="matrix(1.00, 0.00, -0.00, -1.00, 578.3, 234.0)">2</text><text xml:space="preserve" font-family="Helvetica" font-size="29.0" fill="#FEFFFF" transform="matrix(1.00, 0.00, -0.00, -1.00, 594.4, 234.0)">0</text><text xml:space="preserve" font-family="Helvetica" font-size="29.0" fill="#FEFFFF" transform="matrix(1.00, 0.00, -0.00, -1.00, 610.6, 234.0)">1</text><text xml:space="preserve" font-family="Helvetica" font-size="29.0" fill="#FEFFFF" transform="matrix(1.00, 0.00, -0.00, -1.00, 626.7, 234.0)">7</text><text xml:space="preserve" font-family="Helvetica-Light" font-size="84.0" fill="#FEFFFF" transform="matrix(1.00, 0.00, -0.00, -1.00, 200.0, 117.0)">b</text><text xml:space="preserve" font-family="Helvetica-Light" font-size="84.0" fill="#FEFFFF" transform="matrix(1.00, 0.00, -0.00, -1.00, 251.3, 117.0)">i</text><text xml:space="preserve" font-family="Helvetica-Light" font-size="84.0" fill="#FEFFFF" transform="matrix(1.00, 0.00, -0.00, -1.00, 270.0, 117.0)">t</text><text xml:space="preserve" font-family="Helvetica-Light" font-size="84.0" fill="#FEFFFF" transform="matrix(1.00, 0.00, -0.00, -1.00, 293.3, 117.0)">.</text><text xml:space="preserve" font-family="Helvetica-Light" font-size="84.0" fill="#FEFFFF" transform="matrix(1.00, 0.00, -0.00, -1.00, 316.7, 117.0)">l</text><text xml:space="preserve" font-family="Helvetica-Light" font-size="84.0" fill="#FEFFFF" transform="matrix(1.00, 0.00, -0.00, -1.00, 335.3, 117.0)">y</text><text xml:space="preserve" font-family="Helvetica-Light" font-size="84.0" fill="#FEFFFF" transform="matrix(1.00, 0.00, -0.00, -1.00, 377.3, 117.0)">/</text><text xml:space="preserve" font-family="Helvetica-Light" font-size="84.0" fill="#FEFFFF" transform="matrix(1.00, 0.00, -0.00, -1.00, 400.7, 117.0)">h</text><text xml:space="preserve" font-family="Helvetica-Light" font-size="84.0" fill="#FEFFFF" transform="matrix(1.00, 0.00, -0.00, -1.00, 447.4, 117.0)">t</text><text xml:space="preserve" font-family="Helvetica-Light" font-size="84.0" fill="#FEFFFF" transform="matrix(1.00, 0.00, -0.00, -1.00, 470.7, 117.0)">m</text><text xml:space="preserve" font-family="Helvetica-Light" font-size="84.0" fill="#FEFFFF" transform="matrix(1.00, 0.00, -0.00, -1.00, 540.7, 117.0)">l</text><text xml:space="preserve" font-family="Helvetica-Light" font-size="84.0" fill="#FEFFFF" transform="matrix(1.00, 0.00, -0.00, -1.00, 559.4, 117.0)">-</text><text xml:space="preserve" font-family="Helvetica-Light" font-size="84.0" fill="#FEFFFF" transform="matrix(1.00, 0.00, -0.00, -1.00, 587.3, 117.0)">1</text><text xml:space="preserve" font-family="Helvetica-Light" font-size="84.0" fill="#FEFFFF" transform="matrix(1.00, 0.00, -0.00, -1.00, 634.0, 117.0)">-</text><text xml:space="preserve" font-family="Helvetica-Light" font-size="84.0" fill="#FEFFFF" transform="matrix(1.00, 0.00, -0.00, -1.00, 662.0, 117.0)">i</text><text xml:space="preserve" font-family="Helvetica-Light" font-size="84.0" fill="#FEFFFF" transform="matrix(1.00, 0.00, -0.00, -1.00, 680.6, 117.0)">n</text><text xml:space="preserve" font-family="Helvetica-Light" font-size="84.0" fill="#FEFFFF" transform="matrix(1.00, 0.00, -0.00, -1.00, 727.4, 117.0)">t</text><text xml:space="preserve" font-family="Helvetica-Light" font-size="84.0" fill="#FEFFFF" transform="matrix(1.00, 0.00, -0.00, -1.00, 750.7, 117.0)">r</text><text xml:space="preserve" font-family="Helvetica-Light" font-size="84.0" fill="#FEFFFF" transform="matrix(1.00, 0.00, -0.00, -1.00, 777.2, 117.0)">o</text><g><clipPath id="clip-805"><path d="M 199.1 107.6 L 823.9 107.6 L 823.9 113.8 L 199.1 113.8 Z M 199.1 107.6 "></path></clipPath><g clip-path="url(#clip-805)"><path d="M 4.5 92.0 L 628.4 92.0 " fill="none" stroke="#FEFFFF" stroke-width="4.20" stroke-miterlimit="0.00" transform="matrix(1.00, 0.00, 0.00, -1.00, 195.6, 202.6)"></path></g></g></g></svg>