<?xml version="1.0" encoding="UTF-8" standalone="no"?><svg xmlns="http://www.w3.org/2000/svg" xmlns:xlink="http://www.w3.org/1999/xlink" clip-rule="evenodd" stroke-miterlimit="4.00" viewBox="0 0 590 53"><desc>SVG generated by Keynote</desc><defs></defs><g transform="matrix(1.00, 0.00, -0.00, -1.00, 0.0, 53.0)"><text xml:space="preserve" font-family="Helvetica-Light" font-size="51.0" fill="#FEFFFF" transform="matrix(1.00, 0.00, -0.00, -1.00, 0.0, 12.9)">2</text><text xml:space="preserve" font-family="Helvetica-Light" font-size="51.0" fill="#FEFFFF" transform="matrix(1.00, 0.00, -0.00, -1.00, 28.4, 12.9)">.</text><text xml:space="preserve" font-family="Helvetica-Light" font-size="51.0" fill="#FEFFFF" transform="matrix(1.00, 0.00, -0.00, -1.00, 43.0, 13.0)"> </text><text xml:space="preserve" font-family="Helvetica-Light" font-size="51.0" fill="#FEFFFF" transform="matrix(1.00, 0.00, -0.00, -1.00, 57.2, 13.0)">D</text><text xml:space="preserve" font-family="Helvetica-Light" font-size="51.0" fill="#FEFFFF" transform="matrix(1.00, 0.00, -0.00, -1.00, 94.0, 13.0)">e</text><text xml:space="preserve" font-family="Helvetica-Light" font-size="51.0" fill="#FEFFFF" transform="matrix(1.00, 0.00, -0.00, -1.00, 122.4, 13.0)">b</text><text xml:space="preserve" font-family="Helvetica-Light" font-size="51.0" fill="#FEFFFF" transform="matrix(1.00, 0.00, -0.00, -1.00, 153.5, 13.0)">u</text><text xml:space="preserve" font-family="Helvetica-Light" font-size="51.0" fill="#FEFFFF" transform="matrix(1.00, 0.00, -0.00, -1.00, 181.9, 13.0)">g</text><text xml:space="preserve" font-family="Helvetica-Light" font-size="51.0" fill="#FEFFFF" transform="matrix(1.00, 0.00, -0.00, -1.00, 213.0, 13.0)">g</text><text xml:space="preserve" font-family="Helvetica-Light" font-size="51.0" fill="#FEFFFF" transform="matrix(1.00, 0.00, -0.00, -1.00, 244.2, 13.0)">i</text><text xml:space="preserve" font-family="Helvetica-Light" font-size="51.0" fill="#FEFFFF" transform="matrix(1.00, 0.00, -0.00, -1.00, 255.5, 13.0)">n</text><text xml:space="preserve" font-family="Helvetica-Light" font-size="51.0" fill="#FEFFFF" transform="matrix(1.00, 0.00, -0.00, -1.00, 283.9, 13.0)">g</text><text xml:space="preserve" font-family="Helvetica-Light" font-size="51.0" fill="#FEFFFF" transform="matrix(1.00, 0.00, -0.00, -1.00, 315.0, 13.0)"> </text><text xml:space="preserve" font-family="Helvetica-Light" font-size="51.0" fill="#FEFFFF" transform="matrix(1.00, 0.00, -0.00, -1.00, 329.2, 13.0)">l</text><text xml:space="preserve" font-family="Helvetica-Light" font-size="51.0" fill="#FEFFFF" transform="matrix(1.00, 0.00, -0.00, -1.00, 340.5, 13.0)">i</text><text xml:space="preserve" font-family="Helvetica-Light" font-size="51.0" fill="#FEFFFF" transform="matrix(1.00, 0.00, -0.00, -1.00, 351.9, 13.0)">n</text><text xml:space="preserve" font-family="Helvetica-Light" font-size="51.0" fill="#FEFFFF" transform="matrix(1.00, 0.00, -0.00, -1.00, 380.2, 13.0)">e</text><text xml:space="preserve" font-family="Helvetica-Light" font-size="51.0" fill="#FEFFFF" transform="matrix(1.00, 0.00, -0.00, -1.00, 408.6, 13.0)">-</text><text xml:space="preserve" font-family="Helvetica-Light" font-size="51.0" fill="#FEFFFF" transform="matrix(1.00, 0.00, -0.00, -1.00, 425.6, 13.0)">b</text><text xml:space="preserve" font-family="Helvetica-Light" font-size="51.0" fill="#FEFFFF" transform="matrix(1.00, 0.00, -0.00, -1.00, 456.7, 13.0)">y</text><text xml:space="preserve" font-family="Helvetica-Light" font-size="51.0" fill="#FEFFFF" transform="matrix(1.00, 0.00, -0.00, -1.00, 482.2, 13.0)">-</text><text xml:space="preserve" font-family="Helvetica-Light" font-size="51.0" fill="#FEFFFF" transform="matrix(1.00, 0.00, -0.00, -1.00, 499.2, 13.0)">l</text><text xml:space="preserve" font-family="Helvetica-Light" font-size="51.0" fill="#FEFFFF" transform="matrix(1.00, 0.00, -0.00, -1.00, 510.5, 13.0)">i</text><text xml:space="preserve" font-family="Helvetica-Light" font-size="51.0" fill="#FEFFFF" transform="matrix(1.00, 0.00, -0.00, -1.00, 521.8, 13.0)">n</text><text xml:space="preserve" font-family="Helvetica-Light" font-size="51.0" fill="#FEFFFF" transform="matrix(1.00, 0.00, -0.00, -1.00, 550.2, 13.0)">e</text><text xml:space="preserve" font-family="Helvetica-Light" font-size="51.0" fill="#FEFFFF" transform="matrix(1.00, 0.00, -0.00, -1.00, 578.6, 13.0)">.</text></g></svg>