<?xml version="1.0" encoding="UTF-8" standalone="no"?><svg xmlns="http://www.w3.org/2000/svg" xmlns:xlink="http://www.w3.org/1999/xlink" clip-rule="evenodd" stroke-miterlimit="4.00" viewBox="0 0 856 52"><desc>SVG generated by Keynote</desc><defs></defs><g transform="matrix(1.00, 0.00, -0.00, -1.00, 0.0, 52.0)"><text xml:space="preserve" font-family="Helvetica-Light" font-size="51.0" fill="#FEFFFF" transform="matrix(1.00, 0.00, -0.00, -1.00, 0.0, 11.9)">1</text><text xml:space="preserve" font-family="Helvetica-Light" font-size="51.0" fill="#FEFFFF" transform="matrix(1.00, 0.00, -0.00, -1.00, 28.4, 11.9)">.</text><text xml:space="preserve" font-family="Helvetica-Light" font-size="51.0" fill="#FEFFFF" transform="matrix(1.00, 0.00, -0.00, -1.00, 43.0, 12.0)"> </text><text xml:space="preserve" font-family="Helvetica-Light" font-size="51.0" fill="#FEFFFF" transform="matrix(1.00, 0.00, -0.00, -1.00, 57.2, 12.0)">L</text><text xml:space="preserve" font-family="Helvetica-Light" font-size="51.0" fill="#FEFFFF" transform="matrix(1.00, 0.00, -0.00, -1.00, 85.5, 12.0)">e</text><text xml:space="preserve" font-family="Helvetica-Light" font-size="51.0" fill="#FEFFFF" transform="matrix(1.00, 0.00, -0.00, -1.00, 113.9, 12.0)">a</text><text xml:space="preserve" font-family="Helvetica-Light" font-size="51.0" fill="#FEFFFF" transform="matrix(1.00, 0.00, -0.00, -1.00, 142.2, 12.0)">v</text><text xml:space="preserve" font-family="Helvetica-Light" font-size="51.0" fill="#FEFFFF" transform="matrix(1.00, 0.00, -0.00, -1.00, 167.7, 12.0)">e</text><text xml:space="preserve" font-family="Helvetica-Light" font-size="51.0" fill="#FEFFFF" transform="matrix(1.00, 0.00, -0.00, -1.00, 196.1, 12.0)"> </text><text xml:space="preserve" font-family="Helvetica-Light" font-size="51.0" fill="#FEFFFF" transform="matrix(1.00, 0.00, -0.00, -1.00, 210.3, 12.0)">a</text><text xml:space="preserve" font-family="Helvetica-Light" font-size="51.0" fill="#FEFFFF" transform="matrix(1.00, 0.00, -0.00, -1.00, 238.6, 12.0)">n</text><text xml:space="preserve" font-family="Helvetica-Light" font-size="51.0" fill="#FEFFFF" transform="matrix(1.00, 0.00, -0.00, -1.00, 267.0, 12.0)"> </text><text xml:space="preserve" font-family="Helvetica-Light" font-size="51.0" fill="#FEFFFF" transform="matrix(1.00, 0.00, -0.00, -1.00, 281.2, 12.0)">e</text><text xml:space="preserve" font-family="Helvetica-Light" font-size="51.0" fill="#FEFFFF" transform="matrix(1.00, 0.00, -0.00, -1.00, 309.5, 12.0)">x</text><text xml:space="preserve" font-family="Helvetica-Light" font-size="51.0" fill="#FEFFFF" transform="matrix(1.00, 0.00, -0.00, -1.00, 335.0, 12.0)">p</text><text xml:space="preserve" font-family="Helvetica-Light" font-size="51.0" fill="#FEFFFF" transform="matrix(1.00, 0.00, -0.00, -1.00, 366.2, 12.0)">l</text><text xml:space="preserve" font-family="Helvetica-Light" font-size="51.0" fill="#FEFFFF" transform="matrix(1.00, 0.00, -0.00, -1.00, 377.5, 12.0)">a</text><text xml:space="preserve" font-family="Helvetica-Light" font-size="51.0" fill="#FEFFFF" transform="matrix(1.00, 0.00, -0.00, -1.00, 405.9, 12.0)">n</text><text xml:space="preserve" font-family="Helvetica-Light" font-size="51.0" fill="#FEFFFF" transform="matrix(1.00, 0.00, -0.00, -1.00, 434.2, 12.0)">a</text><text xml:space="preserve" font-family="Helvetica-Light" font-size="51.0" fill="#FEFFFF" transform="matrix(1.00, 0.00, -0.00, -1.00, 462.6, 12.0)">t</text><text xml:space="preserve" font-family="Helvetica-Light" font-size="51.0" fill="#FEFFFF" transform="matrix(1.00, 0.00, -0.00, -1.00, 476.8, 12.0)">i</text><text xml:space="preserve" font-family="Helvetica-Light" font-size="51.0" fill="#FEFFFF" transform="matrix(1.00, 0.00, -0.00, -1.00, 488.1, 12.0)">o</text><text xml:space="preserve" font-family="Helvetica-Light" font-size="51.0" fill="#FEFFFF" transform="matrix(1.00, 0.00, -0.00, -1.00, 516.4, 12.0)">n</text><text xml:space="preserve" font-family="Helvetica-Light" font-size="51.0" fill="#FEFFFF" transform="matrix(1.00, 0.00, -0.00, -1.00, 544.8, 12.0)"> </text><text xml:space="preserve" font-family="Helvetica-Light" font-size="51.0" fill="#FEFFFF" transform="matrix(1.00, 0.00, -0.00, -1.00, 559.0, 12.0)">t</text><text xml:space="preserve" font-family="Helvetica-Light" font-size="51.0" fill="#FEFFFF" transform="matrix(1.00, 0.00, -0.00, -1.00, 573.1, 12.0)">o</text><text xml:space="preserve" font-family="Helvetica-Light" font-size="51.0" fill="#FEFFFF" transform="matrix(1.00, 0.00, -0.00, -1.00, 601.5, 12.0)"> </text><text xml:space="preserve" font-family="Helvetica-Light" font-size="51.0" fill="#FEFFFF" transform="matrix(1.00, 0.00, -0.00, -1.00, 615.7, 12.0)">r</text><text xml:space="preserve" font-family="Helvetica-Light" font-size="51.0" fill="#FEFFFF" transform="matrix(1.00, 0.00, -0.00, -1.00, 631.7, 12.0)">e</text><text xml:space="preserve" font-family="Helvetica-Light" font-size="51.0" fill="#FEFFFF" transform="matrix(1.00, 0.00, -0.00, -1.00, 660.1, 12.0)">m</text><text xml:space="preserve" font-family="Helvetica-Light" font-size="51.0" fill="#FEFFFF" transform="matrix(1.00, 0.00, -0.00, -1.00, 702.6, 12.0)">e</text><text xml:space="preserve" font-family="Helvetica-Light" font-size="51.0" fill="#FEFFFF" transform="matrix(1.00, 0.00, -0.00, -1.00, 730.9, 12.0)">m</text><text xml:space="preserve" font-family="Helvetica-Light" font-size="51.0" fill="#FEFFFF" transform="matrix(1.00, 0.00, -0.00, -1.00, 773.4, 12.0)">b</text><text xml:space="preserve" font-family="Helvetica-Light" font-size="51.0" fill="#FEFFFF" transform="matrix(1.00, 0.00, -0.00, -1.00, 804.6, 12.0)">e</text><text xml:space="preserve" font-family="Helvetica-Light" font-size="51.0" fill="#FEFFFF" transform="matrix(1.00, 0.00, -0.00, -1.00, 832.9, 12.0)">r</text><text xml:space="preserve" font-family="Helvetica-Light" font-size="51.0" fill="#FEFFFF" transform="matrix(1.00, 0.00, -0.00, -1.00, 845.2, 12.0)">.</text></g></svg>