<?xml version="1.0" encoding="UTF-8" standalone="no"?><svg xmlns="http://www.w3.org/2000/svg" xmlns:xlink="http://www.w3.org/1999/xlink" clip-rule="evenodd" stroke-miterlimit="4.00" viewBox="0 0 1024 768"><desc>SVG generated by Keynote</desc><defs><pattern id="4B502318-24F0-4DA6-AA11-D8B4E6BAD3B8" patternUnits="userSpaceOnUse" width="256" height="256" viewBox="0 0 256 256" patternTransform="matrix(0.500000, 0.000000, 0.000000, -0.500000, -8.589853, 767.926500)"><image xlink:href="../../0A9D35BC-D679-464E-B2A3-21FD07943538/assets/C2E6FBB4C3857A0E73F6D4A465A166F0.jpeg" width="256.00" height="256.00"></image></pattern></defs><g transform="matrix(1.00, 0.00, -0.00, -1.00, 0.0, 768.0)"><path d="M 0.0 768.0 L 1024.0 768.0 L 1024.0 0.0 L 0.0 0.0 Z M 0.0 768.0 " fill="#000000"></path><g><clipPath id="clip-635"><path d="M -8.6 767.9 L 192.9 767.9 L 192.9 0.1 L -8.6 0.1 Z M -8.6 767.9 "></path></clipPath><g clip-path="url(#clip-635)"><path d="M 0.0 0.1 L 192.9 0.1 L 192.9 767.9 L 0.0 767.9 Z M 0.0 0.1 " fill="url(#4B502318-24F0-4DA6-AA11-D8B4E6BAD3B8)"></path><path d="M -8.6 767.9 L 192.9 767.9 L 192.9 0.1 L -8.6 0.1 Z M -8.6 767.9 " fill="#262721"></path></g></g><g><clipPath id="clip-636"><path d="M 186.0 801.0 L 1212.0 801.0 L 1212.0 -71.0 L 186.0 -71.0 Z M 185.7 800.9 "></path></clipPath><g clip-path="url(#clip-636)"><image xlink:href="../../0A9D35BC-D679-464E-B2A3-21FD07943538/assets/1C6F0728CC4E5FE0623AEFFCC8AAD131.png" width="636.00" height="539.00" transform="matrix(1.61, 0.00, -0.00, -1.62, 186.0, 801.0)"></image></g></g><path d="M 0.0 0.0 L 135.6 0.0 L 136.6 0.0 " fill="none" stroke="#FF9200" stroke-width="2.00" transform="matrix(1.00, 0.00, 0.00, -1.00, 196.4, 740.0)"></path><path d="M 332.0 735.2 L 341.6 740.0 L 332.0 744.8 Z M 332.0 735.2 " fill="#FF9200"></path><text xml:space="preserve" font-family="Helvetica-Light" font-size="30.0" fill="#FEFFFF" transform="matrix(1.00, 0.00, -0.00, -1.00, 22.0, 729.0)">S</text><text xml:space="preserve" font-family="Helvetica-Light" font-size="30.0" fill="#FEFFFF" transform="matrix(1.00, 0.00, -0.00, -1.00, 40.3, 729.0)">e</text><text xml:space="preserve" font-family="Helvetica-Light" font-size="30.0" fill="#FEFFFF" transform="matrix(1.00, 0.00, -0.00, -1.00, 57.0, 729.0)">l</text><text xml:space="preserve" font-family="Helvetica-Light" font-size="30.0" fill="#FEFFFF" transform="matrix(1.00, 0.00, -0.00, -1.00, 63.7, 729.0)">f</text><text xml:space="preserve" font-family="Helvetica-Light" font-size="30.0" fill="#FEFFFF" transform="matrix(1.00, 0.00, -0.00, -1.00, 72.0, 729.0)">-</text><text xml:space="preserve" font-family="Helvetica-Light" font-size="30.0" fill="#FEFFFF" transform="matrix(1.00, 0.00, -0.00, -1.00, 82.0, 729.0)">c</text><text xml:space="preserve" font-family="Helvetica-Light" font-size="30.0" fill="#FEFFFF" transform="matrix(1.00, 0.00, -0.00, -1.00, 98.7, 729.0)">l</text><text xml:space="preserve" font-family="Helvetica-Light" font-size="30.0" fill="#FEFFFF" transform="matrix(1.00, 0.00, -0.00, -1.00, 105.3, 729.0)">o</text><text xml:space="preserve" font-family="Helvetica-Light" font-size="30.0" fill="#FEFFFF" transform="matrix(1.00, 0.00, -0.00, -1.00, 122.0, 729.0)">s</text><text xml:space="preserve" font-family="Helvetica-Light" font-size="30.0" fill="#FEFFFF" transform="matrix(1.00, 0.00, -0.00, -1.00, 137.0, 729.0)">i</text><text xml:space="preserve" font-family="Helvetica-Light" font-size="30.0" fill="#FEFFFF" transform="matrix(1.00, 0.00, -0.00, -1.00, 143.7, 729.0)">n</text><text xml:space="preserve" font-family="Helvetica-Light" font-size="30.0" fill="#FEFFFF" transform="matrix(1.00, 0.00, -0.00, -1.00, 160.4, 729.0)">g</text><g><clipPath id="clip-637"><path d="M -424.3 829.7 L -51.3 829.7 L -51.3 710.9 L -424.3 710.9 Z M -424.3 829.7 "></path></clipPath><g clip-path="url(#clip-637)"><path d="M -424.3 829.7 L -51.3 829.7 L -51.3 710.9 L -424.3 710.9 Z M -424.3 829.7 " fill="#262721"></path></g></g></g></svg>